<svg width="141" height="179" viewBox="0 0 141 179" fill="none" xmlns="http://www.w3.org/2000/svg">
<path d="M69.6667 78.3333C87.1557 78.3333 101.333 64.1557 101.333 46.6667C101.333 29.1776 87.1557 15 69.6667 15C52.1776 15 38 29.1776 38 46.6667C38 64.1557 52.1776 78.3333 69.6667 78.3333Z" stroke="white" stroke-width="30" stroke-linecap="round" stroke-linejoin="round"/>
<path d="M70 116L70.5 162" stroke="white" stroke-width="30" stroke-linecap="round" stroke-linejoin="round"/>
<path d="M125.833 163.5V147.667C125.833 139.268 122.497 131.214 116.558 125.275C110.62 119.336 102.565 116 94.1667 116H46.6667C38.2681 116 30.2136 119.336 24.275 125.275C18.3363 131.214 15 139.268 15 147.667V163.5" stroke="white" stroke-width="30" stroke-linecap="round" stroke-linejoin="round"/>
</svg>
